# xmcd
#
# Track frame offsets: 
#        150
#        12591
#        26638
#        38411
#        52215
#        67034
#        80570
#        91693
#        104424
#        118046
#        132127
#        146207
#        158721
#        172131
#        184167
#        197602
#
# Disc length: 2808 seconds
#
# Revision: 0
# Processed by: cddbd v1.5.2PL0 Copyright (c) Steve Scherf et al.
# Submitted via: ExactAudioCopy v1.1
#
DISCID=e10af610
DTITLE=Henrique and Diego - Ao Vivo
DYEAR=2012
DGENRE=Sertanejo
TTITLE0=5 Horas Da Manhã
TTITLE1=Safadin
TTITLE2=Festa Boa (Part. Esp.: Gusttavo Lima)
TTITLE3=Oh Delícia
TTITLE4=Ressaca De Amor Passa
TTITLE5=Com Você
TTITLE6=Segunda Via (Part. Esp.: Humberto and Ronaldo)
TTITLE7=Paty Melhorada
TTITLE8=Te Levar Pro Céu
TTITLE9=Vai Doer
TTITLE10=Vou Me Entregar (Part. Esp.: Gusttavo Lima)
TTITLE11=Solteiro É Todo Dia
TTITLE12=As Coisas Vão E Vem (Part. Esp.: Matheus and Kauan)
TTITLE13=Sei Que Vai Voltar
TTITLE14=Zuar E Beber
TTITLE15=Na Hora Errada
EXTD=
EXTT0=
EXTT1=
EXTT2=
EXTT3=
EXTT4=
EXTT5=
EXTT6=
EXTT7=
EXTT8=
EXTT9=
EXTT10=
EXTT11=
EXTT12=
EXTT13=
EXTT14=
EXTT15=
PLAYORDER=
